<svg xmlns="http://www.w3.org/2000/svg" viewBox="0 0 240 234"><defs><style>.cls-1{fill:#470137;}.cls-2{fill:#ff61f6;}</style></defs><g id="Layer_2" data-name="Layer 2"><g id="Capa_1" data-name="Capa 1"><g id="Layer_2-2" data-name="Layer 2"><g id="Surfaces"><g id="UI_UX_Surface" data-name="UI UX Surface"><g id="Outline_no_shadow" data-name="Outline no shadow"><rect class="cls-1" width="240" height="234" rx="42.5"/></g></g></g><g id="Outlined_Mnemonics_Logos" data-name="Outlined Mnemonics Logos"><g id="Xd"><path class="cls-2" d="M126.17,61.54,96.22,111l32,52.48a1.65,1.65,0,0,1,.16,1.21c-.11.38-.48.14-1.13.24H104.43c-1.61,0-2.74-.05-3.38-1.13q-3.22-6.27-6.44-12.47t-6.84-12.64q-3.63-6.43-7.17-13h-.16q-3.22,6.44-6.68,12.88t-6.84,12.8q-3.37,6.36-6.92,12.63c-.43,1-1.19,1.07-2.26,1.07H35.69c-.43,0-.67.17-.73-.26a1.67,1.67,0,0,1,.24-1.13l31.07-51L36,61.38c-.32-.43-.38-.78-.16-1.05a1.14,1.14,0,0,1,1-.4h22.7a3.26,3.26,0,0,1,1.45.24,2.85,2.85,0,0,1,1,.89q2.9,6.43,6.44,12.88t7.16,12.71q3.63,6.28,6.68,12.72h.17q3.21-6.6,6.52-12.88t6.76-12.64q3.45-6.34,6.68-12.63a2.43,2.43,0,0,1,.64-1,2.31,2.31,0,0,1,1.29-.24h21.09a.92.92,0,0,1,1.12.67,1,1,0,0,1-.31.94Z"/><path class="cls-2" d="M172.37,167a49.76,49.76,0,0,1-21.49-4.5,34.14,34.14,0,0,1-15-13.61q-5.49-9.09-5.48-22.78A42,42,0,0,1,135.83,105a40.22,40.22,0,0,1,15.93-15.46q10.47-5.79,25.28-5.79c.54,0,1.23,0,2.09.08s1.88.13,3.06.24V52.36c0-.75.33-1.13,1-1.13h20.28a.86.86,0,0,1,1,.73,1,1,0,0,1,0,.24v95.15c0,1.83.08,3.81.24,6s.3,4.08.41,5.79a1.66,1.66,0,0,1-1,1.61,78.94,78.94,0,0,1-16.26,4.83A86.19,86.19,0,0,1,172.37,167Zm9.82-20V103.08a16,16,0,0,0-2.65-.49c-1.1-.11-2.2-.16-3.3-.16A24.86,24.86,0,0,0,165,105a22,22,0,0,0-8.46,7.4q-3.3,4.83-3.3,12.72a28.51,28.51,0,0,0,1.69,10.31,19.65,19.65,0,0,0,4.51,7.08,17.16,17.16,0,0,0,6.76,4,26.53,26.53,0,0,0,8.29,1.28c1.51,0,2.9-.05,4.19-.16A17,17,0,0,0,182.19,147Z"/></g></g></g></g></g></svg>