<svg xmlns="http://www.w3.org/2000/svg" viewBox="0 0 171.33 257"><defs><style>.cls-1{fill:#0acf83;}.cls-2{fill:#a259ff;}.cls-3{fill:#f24e1e;}.cls-4{fill:#ff7262;}.cls-5{fill:#1abcfe;}</style></defs><g id="Layer_2" data-name="Layer 2"><g id="Capa_1" data-name="Capa 1"><path id="path0_fill" data-name="path0 fill" class="cls-1" d="M42.83,257a42.85,42.85,0,0,0,42.84-42.83V171.33H42.83a42.84,42.84,0,0,0,0,85.67Z"/><path id="path1_fill" data-name="path1 fill" class="cls-2" d="M0,128.5A42.85,42.85,0,0,1,42.83,85.67H85.67v85.66H42.83A42.85,42.85,0,0,1,0,128.5Z"/><path id="path1_fill-2" data-name="path1 fill" class="cls-3" d="M0,42.83A42.85,42.85,0,0,1,42.83,0H85.67V85.67H42.83A42.85,42.85,0,0,1,0,42.83Z"/><path id="path2_fill" data-name="path2 fill" class="cls-4" d="M85.67,0H128.5a42.84,42.84,0,0,1,0,85.67H85.67Z"/><path id="path3_fill" data-name="path3 fill" class="cls-5" d="M171.33,128.5A42.83,42.83,0,1,1,128.5,85.67,42.85,42.85,0,0,1,171.33,128.5Z"/></g></g></svg>