<svg xmlns="http://www.w3.org/2000/svg" viewBox="0 0 241 241"><defs><style>.cls-1{fill:#dc395f;}.cls-2{fill:#fff;}</style></defs><g id="Layer_2" data-name="Layer 2"><g id="Capa_1" data-name="Capa 1"><path class="cls-1" d="M219.15,0H21.85A21.85,21.85,0,0,0,0,21.85v197.3A21.85,21.85,0,0,0,21.85,241h197.3A21.85,21.85,0,0,0,241,219.15V21.85A21.85,21.85,0,0,0,219.15,0"/><path class="cls-2" d="M80.54,75.83A14.51,14.51,0,1,0,65.82,61.32,14.55,14.55,0,0,0,80.54,75.83M50,153.51a49.57,49.57,0,0,0-1.3,10.9c0,12.77,6.92,21.26,21.65,21.26,12.21,0,22.11-7.26,29.23-19l-4.35,17.46H119.5l13.85-55.58c3.47-14.07,10.18-21.37,20.36-21.37,8,0,13,5,13,13.2a25.9,25.9,0,0,1-1.09,7.8l-7.14,25.54A38.52,38.52,0,0,0,157,164.59c0,12.13,7.14,21,22.08,21,12.77,0,23-8.23,28.57-27.93L198.09,154c-4.76,13.2-8.88,15.59-12.13,15.59s-5-2.16-5-6.49a28.73,28.73,0,0,1,1.09-6.72L189,131.47a54.86,54.86,0,0,0,2.38-15.78c0-18.62-11.26-28.34-24.9-28.34-12.77,0-25.76,11.52-32.26,23.65L139,89.23H102L96.77,108.4h17.32l-10.67,42.71C95.05,169.73,79.66,170,77.73,169.6c-3.17-.72-5.2-1.92-5.2-6a40.46,40.46,0,0,1,1.52-9.91L90.29,89.23H49.15L44,108.4H61.06L50,153.51"/></g></g></svg>