<svg xmlns="http://www.w3.org/2000/svg" viewBox="0 0 246.23 240.15"><defs><style>.cls-1{fill:#8223af;fill-rule:evenodd;}</style></defs><g id="Layer_2" data-name="Layer 2"><g id="Capa_1" data-name="Capa 1"><path class="cls-1" d="M123.11,0A123.12,123.12,0,0,0,84.18,239.92c6.15,1.07,8.46-2.62,8.46-5.85,0-2.92-.15-12.62-.15-22.93-30.93,5.69-38.94-7.54-41.4-14.47-1.38-3.54-7.38-14.46-12.62-17.39-4.31-2.3-10.46-8-.15-8.15,9.69-.16,16.62,8.92,18.93,12.62C68.33,202.37,86,197.14,93.1,193.9c1.08-8,4.31-13.39,7.85-16.46-27.39-3.08-56-13.7-56-60.79A47.92,47.92,0,0,1,57.56,83.56C56.32,80.49,52,67.87,58.79,50.94c0,0,10.31-3.23,33.85,12.62a116,116,0,0,1,61.56,0c23.54-16,33.86-12.62,33.86-12.62,6.77,16.93,2.46,29.55,1.23,32.62a47.64,47.64,0,0,1,12.62,33.09c0,47.24-28.78,57.71-56.17,60.79,4.46,3.84,8.31,11.23,8.31,22.77,0,16.47-.16,29.7-.16,33.86,0,3.23,2.31,7.08,8.47,5.85A123.18,123.18,0,0,0,123.11,0Z"/></g></g></svg>