<svg width="370" height="279" viewBox="0 0 370 279" fill="none" xmlns="http://www.w3.org/2000/svg">
<rect width="370" height="279" rx="10" fill="#E5E5E5"/>
<path d="M87.7836 84.24V108H84.9036V84.24H87.7836ZM94.8402 108V90H97.3602L97.5402 92.808C98.1882 91.704 99.0282 90.9 100.06 90.396C101.116 89.892 102.196 89.64 103.3 89.64C104.572 89.64 105.772 89.928 106.9 90.504C108.028 91.08 108.892 91.968 109.492 93.168C109.876 92.352 110.416 91.692 111.112 91.188C111.808 90.66 112.564 90.276 113.38 90.036C114.22 89.772 115.012 89.64 115.756 89.64C116.908 89.64 118 89.88 119.032 90.36C120.088 90.84 120.952 91.584 121.624 92.592C122.296 93.6 122.632 94.896 122.632 96.48V108H119.752V96.768C119.752 95.136 119.344 93.96 118.528 93.24C117.712 92.52 116.704 92.16 115.504 92.16C114.568 92.16 113.692 92.388 112.876 92.844C112.06 93.3 111.4 93.972 110.896 94.86C110.416 95.748 110.176 96.84 110.176 98.136V108H107.296V96.768C107.296 95.136 106.888 93.96 106.072 93.24C105.256 92.52 104.248 92.16 103.048 92.16C102.256 92.16 101.44 92.376 100.6 92.808C99.7842 93.216 99.1002 93.876 98.5482 94.788C97.9962 95.7 97.7202 96.9 97.7202 98.388V108H94.8402ZM139.665 96.372C139.665 95.028 139.305 93.996 138.585 93.276C137.865 92.532 136.845 92.16 135.525 92.16C134.277 92.16 133.221 92.436 132.357 92.988C131.493 93.516 130.857 94.38 130.449 95.58L128.109 94.14C128.589 92.796 129.477 91.716 130.773 90.9C132.069 90.06 133.677 89.64 135.597 89.64C136.893 89.64 138.069 89.868 139.125 90.324C140.181 90.756 141.009 91.428 141.609 92.34C142.233 93.228 142.545 94.38 142.545 95.796V104.508C142.545 105.372 143.001 105.804 143.913 105.804C144.369 105.804 144.813 105.744 145.245 105.624L145.101 107.892C144.621 108.132 143.997 108.252 143.229 108.252C142.533 108.252 141.909 108.12 141.357 107.856C140.805 107.592 140.373 107.196 140.061 106.668C139.749 106.116 139.593 105.432 139.593 104.616V104.256L140.313 104.364C140.025 105.3 139.533 106.068 138.837 106.668C138.141 107.244 137.361 107.676 136.497 107.964C135.633 108.228 134.781 108.36 133.941 108.36C132.885 108.36 131.901 108.18 130.989 107.82C130.077 107.46 129.345 106.92 128.793 106.2C128.265 105.456 128.001 104.544 128.001 103.464C128.001 102.12 128.445 101.016 129.333 100.152C130.245 99.264 131.505 98.664 133.113 98.352L140.241 96.948V99.324L134.445 100.512C133.269 100.752 132.393 101.088 131.817 101.52C131.241 101.952 130.953 102.552 130.953 103.32C130.953 104.064 131.241 104.676 131.817 105.156C132.417 105.612 133.257 105.84 134.337 105.84C135.033 105.84 135.693 105.756 136.317 105.588C136.965 105.396 137.541 105.12 138.045 104.76C138.549 104.376 138.945 103.908 139.233 103.356C139.521 102.78 139.665 102.108 139.665 101.34V96.372ZM164.699 86.688L165.347 89.244C165.323 89.244 165.287 89.244 165.239 89.244C165.191 89.244 165.143 89.244 165.095 89.244C163.919 89.244 163.007 89.484 162.359 89.964C161.735 90.42 161.423 91.164 161.423 92.196L159.659 91.296C159.659 90.36 159.875 89.544 160.307 88.848C160.739 88.152 161.327 87.624 162.071 87.264C162.815 86.88 163.631 86.688 164.519 86.688C164.543 86.688 164.567 86.688 164.591 86.688C164.639 86.688 164.675 86.688 164.699 86.688ZM159.227 105.696C160.931 105.696 162.263 106.092 163.223 106.884C164.183 107.652 164.663 108.684 164.663 109.98C164.663 111.156 164.267 112.176 163.475 113.04C162.707 113.904 161.663 114.564 160.343 115.02C159.047 115.5 157.583 115.74 155.951 115.74C153.119 115.74 150.995 115.26 149.579 114.3C148.187 113.34 147.491 112.188 147.491 110.844C147.491 109.884 147.803 109.02 148.427 108.252C149.075 107.508 150.155 107.088 151.667 106.992L151.415 107.532C150.599 107.316 149.903 106.956 149.327 106.452C148.775 105.924 148.499 105.168 148.499 104.184C148.499 103.2 148.859 102.36 149.579 101.664C150.323 100.944 151.415 100.5 152.855 100.332L154.763 101.304H154.403C153.227 101.424 152.387 101.724 151.883 102.204C151.403 102.66 151.163 103.164 151.163 103.716C151.163 104.388 151.403 104.892 151.883 105.228C152.387 105.54 153.083 105.696 153.971 105.696H159.227ZM155.915 113.328C157.307 113.328 158.447 113.184 159.335 112.896C160.247 112.608 160.919 112.236 161.351 111.78C161.783 111.324 161.999 110.832 161.999 110.304C161.999 109.656 161.735 109.14 161.207 108.756C160.703 108.372 159.779 108.18 158.435 108.18H152.891C152.123 108.18 151.475 108.372 150.947 108.756C150.419 109.164 150.155 109.716 150.155 110.412C150.155 111.3 150.659 112.008 151.667 112.536C152.699 113.064 154.115 113.328 155.915 113.328ZM155.663 89.64C157.103 89.64 158.375 89.904 159.479 90.432C160.607 90.936 161.483 91.644 162.107 92.556C162.731 93.468 163.043 94.524 163.043 95.724C163.043 96.9 162.731 97.956 162.107 98.892C161.483 99.804 160.607 100.524 159.479 101.052C158.375 101.556 157.103 101.808 155.663 101.808C153.287 101.808 151.463 101.244 150.191 100.116C148.919 98.964 148.283 97.5 148.283 95.724C148.283 94.524 148.595 93.468 149.219 92.556C149.867 91.644 150.743 90.936 151.847 90.432C152.951 89.904 154.223 89.64 155.663 89.64ZM155.663 91.98C154.415 91.98 153.371 92.328 152.531 93.024C151.691 93.696 151.271 94.596 151.271 95.724C151.271 96.828 151.691 97.728 152.531 98.424C153.371 99.12 154.415 99.468 155.663 99.468C156.911 99.468 157.955 99.12 158.795 98.424C159.635 97.728 160.055 96.828 160.055 95.724C160.055 94.596 159.635 93.696 158.795 93.024C157.955 92.328 156.911 91.98 155.663 91.98ZM176.227 108.36C174.523 108.36 172.999 107.988 171.655 107.244C170.335 106.5 169.303 105.432 168.559 104.04C167.815 102.624 167.443 100.944 167.443 99C167.443 97.056 167.815 95.388 168.559 93.996C169.303 92.58 170.323 91.5 171.619 90.756C172.915 90.012 174.391 89.64 176.047 89.64C177.727 89.64 179.155 90 180.331 90.72C181.531 91.44 182.443 92.424 183.067 93.672C183.691 94.896 184.003 96.276 184.003 97.812C184.003 98.22 183.991 98.592 183.967 98.928C183.943 99.264 183.907 99.564 183.859 99.828H169.315V97.272H182.599L181.123 97.56C181.123 95.832 180.643 94.5 179.683 93.564C178.747 92.628 177.511 92.16 175.975 92.16C174.799 92.16 173.779 92.436 172.915 92.988C172.075 93.516 171.415 94.296 170.935 95.328C170.479 96.336 170.251 97.56 170.251 99C170.251 100.416 170.491 101.64 170.971 102.672C171.451 103.704 172.123 104.496 172.987 105.048C173.875 105.576 174.931 105.84 176.155 105.84C177.475 105.84 178.543 105.588 179.359 105.084C180.199 104.58 180.871 103.896 181.375 103.032L183.643 104.364C183.187 105.18 182.599 105.888 181.879 106.488C181.183 107.088 180.355 107.556 179.395 107.892C178.459 108.204 177.403 108.36 176.227 108.36ZM205.295 84.888V103.032C205.295 103.92 205.547 104.58 206.051 105.012C206.555 105.444 207.203 105.66 207.995 105.66C208.691 105.66 209.291 105.54 209.795 105.3C210.299 105.06 210.755 104.736 211.163 104.328L212.171 106.74C211.619 107.244 210.959 107.64 210.191 107.928C209.447 108.216 208.583 108.36 207.599 108.36C206.687 108.36 205.835 108.204 205.043 107.892C204.251 107.556 203.615 107.04 203.135 106.344C202.679 105.624 202.439 104.688 202.415 103.536V85.68L205.295 84.888ZM211.847 90V92.484H198.815V90H211.847ZM223.581 89.64C225.285 89.64 226.785 90.012 228.081 90.756C229.401 91.5 230.433 92.58 231.177 93.996C231.921 95.388 232.293 97.056 232.293 99C232.293 100.944 231.921 102.624 231.177 104.04C230.433 105.432 229.401 106.5 228.081 107.244C226.785 107.988 225.285 108.36 223.581 108.36C221.901 108.36 220.401 107.988 219.081 107.244C217.761 106.5 216.729 105.432 215.985 104.04C215.241 102.624 214.869 100.944 214.869 99C214.869 97.056 215.241 95.388 215.985 93.996C216.729 92.58 217.761 91.5 219.081 90.756C220.401 90.012 221.901 89.64 223.581 89.64ZM223.581 92.124C222.357 92.124 221.313 92.4 220.449 92.952C219.585 93.504 218.913 94.296 218.433 95.328C217.977 96.336 217.749 97.56 217.749 99C217.749 100.416 217.977 101.64 218.433 102.672C218.913 103.704 219.585 104.496 220.449 105.048C221.313 105.6 222.357 105.876 223.581 105.876C224.805 105.876 225.849 105.6 226.713 105.048C227.577 104.496 228.237 103.704 228.693 102.672C229.173 101.64 229.413 100.416 229.413 99C229.413 97.56 229.173 96.336 228.693 95.328C228.237 94.296 227.577 93.504 226.713 92.952C225.849 92.4 224.805 92.124 223.581 92.124ZM258.805 108.36C257.797 108.36 256.861 108.18 255.997 107.82C255.133 107.46 254.389 106.956 253.765 106.308C253.141 105.66 252.673 104.928 252.361 104.112L252.757 103.608L252.505 108H249.985V81.72H252.865V94.068L252.505 93.528C252.985 92.4 253.789 91.476 254.917 90.756C256.069 90.012 257.377 89.64 258.841 89.64C260.329 89.64 261.697 90.012 262.945 90.756C264.193 91.5 265.189 92.568 265.933 93.96C266.677 95.352 267.049 97.032 267.049 99C267.049 100.944 266.665 102.624 265.897 104.04C265.153 105.432 264.157 106.5 262.909 107.244C261.661 107.988 260.293 108.36 258.805 108.36ZM258.517 105.84C260.293 105.84 261.673 105.216 262.657 103.968C263.665 102.72 264.169 101.064 264.169 99C264.169 96.936 263.677 95.28 262.693 94.032C261.709 92.784 260.329 92.16 258.553 92.16C257.425 92.16 256.429 92.448 255.565 93.024C254.725 93.6 254.065 94.404 253.585 95.436C253.105 96.468 252.865 97.68 252.865 99.072C252.865 100.44 253.093 101.64 253.549 102.672C254.029 103.68 254.689 104.46 255.529 105.012C256.393 105.564 257.389 105.84 258.517 105.84ZM280.079 108.36C278.375 108.36 276.851 107.988 275.507 107.244C274.187 106.5 273.155 105.432 272.411 104.04C271.667 102.624 271.295 100.944 271.295 99C271.295 97.056 271.667 95.388 272.411 93.996C273.155 92.58 274.175 91.5 275.471 90.756C276.767 90.012 278.243 89.64 279.899 89.64C281.579 89.64 283.007 90 284.183 90.72C285.383 91.44 286.295 92.424 286.919 93.672C287.543 94.896 287.855 96.276 287.855 97.812C287.855 98.22 287.843 98.592 287.819 98.928C287.795 99.264 287.759 99.564 287.711 99.828H273.167V97.272H286.451L284.975 97.56C284.975 95.832 284.495 94.5 283.535 93.564C282.599 92.628 281.363 92.16 279.827 92.16C278.651 92.16 277.631 92.436 276.767 92.988C275.927 93.516 275.267 94.296 274.787 95.328C274.331 96.336 274.103 97.56 274.103 99C274.103 100.416 274.343 101.64 274.823 102.672C275.303 103.704 275.975 104.496 276.839 105.048C277.727 105.576 278.783 105.84 280.007 105.84C281.327 105.84 282.395 105.588 283.211 105.084C284.051 104.58 284.723 103.896 285.227 103.032L287.495 104.364C287.039 105.18 286.451 105.888 285.731 106.488C285.035 107.088 284.207 107.556 283.247 107.892C282.311 108.204 281.255 108.36 280.079 108.36ZM118.464 128.544C117.816 128.544 117.288 128.352 116.88 127.968C116.496 127.56 116.304 127.032 116.304 126.384C116.304 125.736 116.496 125.22 116.88 124.836C117.288 124.428 117.816 124.224 118.464 124.224C119.112 124.224 119.628 124.428 120.012 124.836C120.42 125.22 120.624 125.736 120.624 126.384C120.624 127.032 120.42 127.56 120.012 127.968C119.628 128.352 119.112 128.544 118.464 128.544ZM119.904 132V150H117.024V132H119.904ZM126.586 150V132H129.106L129.358 136.032L128.89 135.636C129.274 134.676 129.79 133.908 130.438 133.332C131.086 132.732 131.83 132.3 132.67 132.036C133.534 131.772 134.422 131.64 135.334 131.64C136.63 131.64 137.806 131.892 138.862 132.396C139.918 132.876 140.758 133.62 141.382 134.628C142.03 135.636 142.354 136.92 142.354 138.48V150H139.474V139.488C139.474 137.496 139.042 136.116 138.178 135.348C137.338 134.556 136.294 134.16 135.046 134.16C134.182 134.16 133.318 134.364 132.454 134.772C131.59 135.18 130.87 135.84 130.294 136.752C129.742 137.664 129.466 138.888 129.466 140.424V150H126.586ZM155.355 150.36C153.603 150.36 151.983 149.988 150.495 149.244C149.031 148.5 147.903 147.444 147.111 146.076L149.559 144.312C150.087 145.416 150.855 146.28 151.863 146.904C152.895 147.528 154.131 147.84 155.571 147.84C156.843 147.84 157.839 147.6 158.559 147.12C159.279 146.616 159.639 145.968 159.639 145.176C159.639 144.672 159.471 144.216 159.135 143.808C158.823 143.376 158.211 143.064 157.299 142.872L152.979 141.972C151.227 141.612 149.967 141.012 149.199 140.172C148.455 139.332 148.083 138.288 148.083 137.04C148.083 136.056 148.359 135.156 148.911 134.34C149.487 133.524 150.291 132.876 151.323 132.396C152.379 131.892 153.615 131.64 155.031 131.64C156.807 131.64 158.307 131.988 159.531 132.684C160.755 133.38 161.667 134.364 162.267 135.636L159.855 137.22C159.447 136.164 158.787 135.396 157.875 134.916C156.963 134.412 156.015 134.16 155.031 134.16C154.167 134.16 153.423 134.28 152.799 134.52C152.199 134.76 151.731 135.096 151.395 135.528C151.083 135.936 150.927 136.404 150.927 136.932C150.927 137.46 151.107 137.952 151.467 138.408C151.827 138.84 152.499 139.152 153.483 139.344L157.983 140.28C159.663 140.616 160.839 141.168 161.511 141.936C162.183 142.704 162.519 143.64 162.519 144.744C162.519 145.872 162.219 146.868 161.619 147.732C161.019 148.572 160.179 149.22 159.099 149.676C158.019 150.132 156.771 150.36 155.355 150.36ZM175.384 150.36C173.68 150.36 172.156 149.988 170.812 149.244C169.492 148.5 168.46 147.432 167.716 146.04C166.972 144.624 166.6 142.944 166.6 141C166.6 139.056 166.972 137.388 167.716 135.996C168.46 134.58 169.48 133.5 170.776 132.756C172.072 132.012 173.548 131.64 175.204 131.64C176.884 131.64 178.312 132 179.488 132.72C180.688 133.44 181.6 134.424 182.224 135.672C182.848 136.896 183.16 138.276 183.16 139.812C183.16 140.22 183.148 140.592 183.124 140.928C183.1 141.264 183.064 141.564 183.016 141.828H168.472V139.272H181.756L180.28 139.56C180.28 137.832 179.8 136.5 178.84 135.564C177.904 134.628 176.668 134.16 175.132 134.16C173.956 134.16 172.936 134.436 172.072 134.988C171.232 135.516 170.572 136.296 170.092 137.328C169.636 138.336 169.408 139.56 169.408 141C169.408 142.416 169.648 143.64 170.128 144.672C170.608 145.704 171.28 146.496 172.144 147.048C173.032 147.576 174.088 147.84 175.312 147.84C176.632 147.84 177.7 147.588 178.516 147.084C179.356 146.58 180.028 145.896 180.532 145.032L182.8 146.364C182.344 147.18 181.756 147.888 181.036 148.488C180.34 149.088 179.512 149.556 178.552 149.892C177.616 150.204 176.56 150.36 175.384 150.36ZM188.637 150V132H190.977L191.373 134.952C191.877 133.848 192.609 133.02 193.569 132.468C194.553 131.916 195.741 131.64 197.133 131.64C197.445 131.64 197.781 131.664 198.141 131.712C198.525 131.76 198.849 131.856 199.113 132L198.609 134.628C198.345 134.532 198.057 134.46 197.745 134.412C197.433 134.364 196.989 134.34 196.413 134.34C195.669 134.34 194.913 134.556 194.145 134.988C193.401 135.42 192.777 136.08 192.273 136.968C191.769 137.832 191.517 138.936 191.517 140.28V150H188.637ZM206.491 126.888V145.032C206.491 145.92 206.743 146.58 207.247 147.012C207.751 147.444 208.399 147.66 209.191 147.66C209.887 147.66 210.487 147.54 210.991 147.3C211.495 147.06 211.951 146.736 212.359 146.328L213.367 148.74C212.815 149.244 212.155 149.64 211.387 149.928C210.643 150.216 209.779 150.36 208.795 150.36C207.883 150.36 207.031 150.204 206.239 149.892C205.447 149.556 204.811 149.04 204.331 148.344C203.875 147.624 203.635 146.688 203.611 145.536V127.68L206.491 126.888ZM213.043 132V134.484H200.011V132H213.043ZM224.849 150.36C223.145 150.36 221.621 149.988 220.277 149.244C218.957 148.5 217.925 147.432 217.181 146.04C216.437 144.624 216.065 142.944 216.065 141C216.065 139.056 216.437 137.388 217.181 135.996C217.925 134.58 218.945 133.5 220.241 132.756C221.537 132.012 223.013 131.64 224.669 131.64C226.349 131.64 227.777 132 228.953 132.72C230.153 133.44 231.065 134.424 231.689 135.672C232.313 136.896 232.625 138.276 232.625 139.812C232.625 140.22 232.613 140.592 232.589 140.928C232.565 141.264 232.529 141.564 232.481 141.828H217.937V139.272H231.221L229.745 139.56C229.745 137.832 229.265 136.5 228.305 135.564C227.369 134.628 226.133 134.16 224.597 134.16C223.421 134.16 222.401 134.436 221.537 134.988C220.697 135.516 220.037 136.296 219.557 137.328C219.101 138.336 218.873 139.56 218.873 141C218.873 142.416 219.113 143.64 219.593 144.672C220.073 145.704 220.745 146.496 221.609 147.048C222.497 147.576 223.553 147.84 224.777 147.84C226.097 147.84 227.165 147.588 227.981 147.084C228.821 146.58 229.493 145.896 229.997 145.032L232.265 146.364C231.809 147.18 231.221 147.888 230.501 148.488C229.805 149.088 228.977 149.556 228.017 149.892C227.081 150.204 226.025 150.36 224.849 150.36ZM245.122 150.36C243.634 150.36 242.266 149.988 241.018 149.244C239.77 148.5 238.774 147.432 238.03 146.04C237.286 144.624 236.914 142.944 236.914 141C236.914 139.008 237.31 137.316 238.102 135.924C238.894 134.532 239.938 133.476 241.234 132.756C242.53 132.012 243.922 131.64 245.41 131.64C246.898 131.64 248.182 132.024 249.262 132.792C250.366 133.56 251.098 134.58 251.458 135.852L251.098 136.104V123.72H253.978V150H251.458L251.206 145.644L251.602 145.428C251.434 146.484 251.026 147.384 250.378 148.128C249.754 148.848 248.974 149.4 248.038 149.784C247.126 150.168 246.154 150.36 245.122 150.36ZM245.41 147.84C246.562 147.84 247.558 147.552 248.398 146.976C249.262 146.4 249.922 145.584 250.378 144.528C250.858 143.448 251.098 142.188 251.098 140.748C251.098 139.38 250.858 138.204 250.378 137.22C249.922 136.236 249.274 135.48 248.434 134.952C247.618 134.424 246.658 134.16 245.554 134.16C243.73 134.16 242.314 134.784 241.306 136.032C240.298 137.28 239.794 138.936 239.794 141C239.794 143.064 240.286 144.72 241.27 145.968C242.254 147.216 243.634 147.84 245.41 147.84ZM149.86 192V165.72H152.74V176.7C153.364 175.62 154.192 174.84 155.224 174.36C156.256 173.88 157.384 173.64 158.608 173.64C159.904 173.64 161.08 173.892 162.136 174.396C163.192 174.876 164.032 175.62 164.656 176.628C165.304 177.636 165.628 178.92 165.628 180.48V192H162.748V181.488C162.748 179.496 162.316 178.116 161.452 177.348C160.612 176.556 159.568 176.16 158.32 176.16C157.456 176.16 156.592 176.364 155.728 176.772C154.864 177.18 154.144 177.852 153.568 178.788C153.016 179.7 152.74 180.924 152.74 182.46V192H149.86ZM179.673 192.36C177.969 192.36 176.445 191.988 175.101 191.244C173.781 190.5 172.749 189.432 172.005 188.04C171.261 186.624 170.889 184.944 170.889 183C170.889 181.056 171.261 179.388 172.005 177.996C172.749 176.58 173.769 175.5 175.065 174.756C176.361 174.012 177.837 173.64 179.493 173.64C181.173 173.64 182.601 174 183.777 174.72C184.977 175.44 185.889 176.424 186.513 177.672C187.137 178.896 187.449 180.276 187.449 181.812C187.449 182.22 187.437 182.592 187.413 182.928C187.389 183.264 187.353 183.564 187.305 183.828H172.761V181.272H186.045L184.569 181.56C184.569 179.832 184.089 178.5 183.129 177.564C182.193 176.628 180.957 176.16 179.421 176.16C178.245 176.16 177.225 176.436 176.361 176.988C175.521 177.516 174.861 178.296 174.381 179.328C173.925 180.336 173.697 181.56 173.697 183C173.697 184.416 173.937 185.64 174.417 186.672C174.897 187.704 175.569 188.496 176.433 189.048C177.321 189.576 178.377 189.84 179.601 189.84C180.921 189.84 181.989 189.588 182.805 189.084C183.645 188.58 184.317 187.896 184.821 187.032L187.089 188.364C186.633 189.18 186.045 189.888 185.325 190.488C184.629 191.088 183.801 191.556 182.841 191.892C181.905 192.204 180.849 192.36 179.673 192.36ZM192.926 192V174H195.266L195.662 176.952C196.166 175.848 196.898 175.02 197.858 174.468C198.842 173.916 200.03 173.64 201.422 173.64C201.734 173.64 202.07 173.664 202.43 173.712C202.814 173.76 203.138 173.856 203.402 174L202.898 176.628C202.634 176.532 202.346 176.46 202.034 176.412C201.722 176.364 201.278 176.34 200.702 176.34C199.958 176.34 199.202 176.556 198.434 176.988C197.69 177.42 197.066 178.08 196.562 178.968C196.058 179.832 195.806 180.936 195.806 182.28V192H192.926ZM214.583 192.36C212.879 192.36 211.355 191.988 210.011 191.244C208.691 190.5 207.659 189.432 206.915 188.04C206.171 186.624 205.799 184.944 205.799 183C205.799 181.056 206.171 179.388 206.915 177.996C207.659 176.58 208.679 175.5 209.975 174.756C211.271 174.012 212.747 173.64 214.403 173.64C216.083 173.64 217.511 174 218.687 174.72C219.887 175.44 220.799 176.424 221.423 177.672C222.047 178.896 222.359 180.276 222.359 181.812C222.359 182.22 222.347 182.592 222.323 182.928C222.299 183.264 222.263 183.564 222.215 183.828H207.671V181.272H220.955L219.479 181.56C219.479 179.832 218.999 178.5 218.039 177.564C217.103 176.628 215.867 176.16 214.331 176.16C213.155 176.16 212.135 176.436 211.271 176.988C210.431 177.516 209.771 178.296 209.291 179.328C208.835 180.336 208.607 181.56 208.607 183C208.607 184.416 208.847 185.64 209.327 186.672C209.807 187.704 210.479 188.496 211.343 189.048C212.231 189.576 213.287 189.84 214.511 189.84C215.831 189.84 216.899 189.588 217.715 189.084C218.555 188.58 219.227 187.896 219.731 187.032L221.999 188.364C221.543 189.18 220.955 189.888 220.235 190.488C219.539 191.088 218.711 191.556 217.751 191.892C216.815 192.204 215.759 192.36 214.583 192.36Z" fill="black"/>
</svg>
